<?xml version="1.0" encoding="UTF-8" standalone="no"?>
<svg
   xmlns:dc="http://purl.org/dc/elements/1.1/"
   xmlns:cc="http://creativecommons.org/ns#"
   xmlns:rdf="http://www.w3.org/1999/02/22-rdf-syntax-ns#"
   xmlns:svg="http://www.w3.org/2000/svg"
   xmlns="http://www.w3.org/2000/svg"
   version="1.1"
   id="svg2"
   height="90"
   width="305">
  <defs
     id="defs4">
    <linearGradient
       id="linearGradient3981">
      <stop
         id="stop3983"
         offset="0"
         style="stop-color:#660000;stop-opacity:1;" />
      <stop
         id="stop3985"
         offset="1"
         style="stop-color:#000000;stop-opacity:0;" />
    </linearGradient>
    <linearGradient
       id="linearGradient3944">
      <stop
         id="stop3946"
         offset="0"
         style="stop-color:#660000;stop-opacity:1;" />
      <stop
         id="stop3948"
         offset="1"
         style="stop-color:#000000;stop-opacity:0;" />
    </linearGradient>
  </defs>
  <metadata
     id="metadata7">
    <rdf:RDF>
      <cc:Work
         rdf:about="">
        <dc:format>image/svg+xml</dc:format>
        <dc:type
           rdf:resource="http://purl.org/dc/dcmitype/StillImage" />
        <dc:title></dc:title>
      </cc:Work>
    </rdf:RDF>
  </metadata>
  <g
     style="display:inline"
     transform="translate(-88.58268,-76.535401)"
     id="layer1">
    <path
       transform="translate(88.58268,76.535401)"
       id="path3006"
       d="M 45.572266,1.5722656 A 44.29134,44.29134 0 0 0 1.28125,45.865234 44.29134,44.29134 0 0 0 33.376953,88.404297 L 57.505859,77.044922 V 28.207031 c -4e-5,-1.84987 -1.165223,-3.237109 -3.496093,-4.162109 -2.29393,-0.92492 -5.10768,-1.386669 -8.4375,-1.386719 -3.32988,5e-5 -6.159365,0.461799 -8.490235,1.386719 -2.29392,0.925 -3.441426,2.312239 -3.441406,4.162109 v 43.84375 L 23.095703,77.044922 H 22.541016 V 26.265625 c -10e-6,-4.95773 3.460196,-8.769654 10.378906,-11.433594 3.73682,-1.44287 7.953524,-2.164002 12.652344,-2.164062 4.69877,6e-5 8.917417,0.721192 12.654296,2.164062 6.918651,2.66394 10.378847,6.475864 10.378907,11.433594 V 71.820312 L 86.150391,63.560547 A 44.29134,44.29134 0 0 0 89.863281,45.865234 44.29134,44.29134 0 0 0 45.572266,1.5722656 Z"
       style="display:inline;opacity:1;fill:#cc0000;fill-opacity:1;stroke:none" />
  </g>
  <g
     style="display:inline"
     transform="translate(-88.58268,-76.535416)"
     id="layer4">
    <path
       transform="translate(88.58268,76.535416)"
       id="path3006-8"
       d="m 89.855469,45.621094 -21.25,10.003906 v 16.195312 l 17.570312,-8.271484 c 2.36097,-5.41623 3.679688,-11.390504 3.679688,-17.677734 0,-0.0837 4.6e-4,-0.1664 0,-0.25 z m -32.34961,15.228515 -40.33789,18.990235 c 4.667,3.90313 10.155682,6.86071 16.164062,8.58789 L 58,76.814453 h -0.494141 z"
       style="display:inline;opacity:1;fill:#660000;fill-opacity:1;stroke:none" />
  </g>
  <g
     style="display:inline"
     transform="translate(0,1.4173203)"
     id="layer5">
    <g
       transform="translate(-87.181448,-74.360222)"
       id="text3006"
       style="display:inline;font-style:normal;font-weight:normal;font-size:40px;line-height:125%;font-family:Sans;letter-spacing:0px;word-spacing:0px;opacity:1;fill:#000000;fill-opacity:1;stroke:none">
      <path
         id="path3779"
         style="font-variant:normal;font-stretch:normal;font-size:72px;font-family:'Nova Flat';-inkscape-font-specification:'Nova Flat';fill:#cc0000"
         d="m 201.84912,140.13964 v -33.08292 c 0,-3.22992 2.25373,-5.71264 6.76121,-7.44818 2.4345,-0.940018 5.18238,-1.41005 8.24361,-1.410091 3.0612,4.1e-5 5.80908,0.470073 8.24362,1.410091 4.50744,1.73554 6.76117,4.21826 6.76121,7.44818 v 29.82886 l -6.86968,3.25406 h -0.36156 v -31.81745 c -3e-5,-1.20518 -0.75931,-2.10908 -2.27785,-2.71172 -1.49447,-0.60257 -3.32639,-0.90387 -5.49574,-0.90391 -2.16939,4e-5 -4.01335,0.30134 -5.53189,0.90391 -1.49448,0.60264 -2.2417,1.50654 -2.24169,2.71172 v 28.56339 l -6.86968,3.25406 h -0.36156" />
      <path
         id="path3781"
         style="font-variant:normal;font-stretch:normal;font-size:72px;font-family:'Nova Flat';-inkscape-font-specification:'Nova Flat';fill:#cc0000"
         d="m 246.37308,129.29278 c -10e-6,1.20522 0.74721,2.10912 2.24169,2.71171 1.51854,0.60261 3.3625,0.90391 5.5319,0.90391 2.16934,0 4.00126,-0.3013 5.49574,-0.90391 1.51853,-0.60259 2.27781,-1.50649 2.27784,-2.71171 v -20.97059 c -3e-5,-1.20518 -0.75931,-2.10908 -2.27784,-2.71172 -1.49448,-0.60257 -3.3264,-0.90387 -5.49574,-0.90391 -2.1694,4e-5 -4.01336,0.30134 -5.5319,0.90391 -1.49448,0.60264 -2.2417,1.50654 -2.24169,2.71172 v 20.97059 m -7.23124,1.26546 v -23.50152 c 0,-3.18172 2.25373,-5.66444 6.76121,-7.44818 2.4345,-0.940018 5.18238,-1.41005 8.24362,-1.410091 3.0612,4.1e-5 5.80907,0.470073 8.24361,1.410091 4.50743,1.78374 6.76117,4.26646 6.76121,7.44818 v 23.50152 c -4e-5,3.18176 -2.25378,5.66448 -6.76121,7.44818 -2.43454,0.94006 -5.18241,1.41009 -8.24361,1.41009 -3.06124,0 -5.80912,-0.47003 -8.24362,-1.41009 -4.50748,-1.7837 -6.76121,-4.26642 -6.76121,-7.44818" />
      <path
         id="path3783"
         style="font-variant:normal;font-stretch:normal;font-size:72px;font-family:'Nova Flat';-inkscape-font-specification:'Nova Flat';fill:#cc0000"
         d="m 287.50246,140.13964 -13.95629,-39.69951 6.25502,-2.964805 h 0.36156 l 10.2322,30.154265 10.01527,-30.154265 h 0.36156 l 6.25502,2.964805 -12.90776,36.73469 -6.25502,2.96482 h -0.36156" />
      <path
         id="path3785"
         style="font-variant:normal;font-stretch:normal;font-size:72px;font-family:'Nova Flat';-inkscape-font-specification:'Nova Flat';fill:#cc0000"
         d="m 312.31719,90.931053 c -0.84364,-0.8677 -1.26547,-1.904176 -1.26546,-3.109432 -1e-5,-1.229259 0.42182,-2.277788 1.26546,-3.14559 0.84364,-0.867694 1.86806,-1.301567 3.07329,-1.301623 1.20519,5.6e-5 2.22961,0.433929 3.07327,1.301623 0.84363,0.867802 1.26545,1.916331 1.26547,3.14559 -2e-5,1.205256 -0.42184,2.241732 -1.26547,3.109432 -0.84366,0.867796 -1.86808,1.30167 -3.07327,1.301623 -1.20523,4.7e-5 -2.22965,-0.433827 -3.07329,-1.301623 m -0.54234,49.208587 v -39.41026 l 6.86968,-3.254055 h 0.36156 v 39.410255 l -6.86968,3.25406 h -0.36156" />
      <path
         id="path3787"
         style="font-variant:normal;font-stretch:normal;font-size:72px;font-family:'Nova Flat';-inkscape-font-specification:'Nova Flat';fill:#cc0000"
         d="m 325.843,130.55824 v -23.50152 c -1e-5,-3.22992 2.25373,-5.71264 6.76121,-7.44818 2.4345,-0.940018 5.18237,-1.41005 8.24361,-1.410091 3.0612,4.1e-5 5.80907,0.470073 8.24362,1.410091 4.50744,1.78374 6.76117,4.26646 6.76121,7.44818 v 38.32556 c -4e-5,3.22995 -2.25377,5.71267 -6.76121,7.44818 -2.43455,0.94005 -5.18242,1.41008 -8.24362,1.41009 h -11.24457 v -0.36156 l 2.89249,-6.14655 h 8.35208 c 2.16935,-1e-5 4.00126,-0.30131 5.49574,-0.90391 1.51854,-0.60261 2.27782,-1.50651 2.27785,-2.71172 v -5.92961 c -2.31403,0.81954 -4.90522,1.22931 -7.77359,1.22931 -3.06124,0 -5.80911,-0.47003 -8.24361,-1.41009 -4.50748,-1.7837 -6.76122,-4.26642 -6.76121,-7.44818 m 7.23124,-1.26546 c -10e-6,1.20522 0.74722,2.10912 2.24169,2.71171 1.51854,0.60261 3.36251,0.90391 5.53189,0.90391 2.19346,0 4.03742,-0.3013 5.5319,-0.90391 1.49444,-0.60259 2.24166,-1.50649 2.24169,-2.71171 v -20.97059 c -3e-5,-1.20518 -0.75931,-2.10908 -2.27785,-2.71172 -1.49448,-0.60257 -3.32639,-0.90387 -5.49574,-0.90391 -2.16938,4e-5 -4.01335,0.30134 -5.53189,0.90391 -1.49447,0.60264 -2.2417,1.50654 -2.24169,2.71172 v 20.97059" />
      <path
         id="path3789"
         style="font-variant:normal;font-stretch:normal;font-size:72px;font-family:'Nova Flat';-inkscape-font-specification:'Nova Flat';fill:#cc0000"
         d="m 390.8996,136.88558 -6.86968,3.25406 h -0.36156 v -1.95244 c -2.31402,0.81954 -4.7847,1.22931 -7.41202,1.22931 -2.8202,0 -5.44755,-0.47003 -7.88206,-1.41009 -4.50747,-1.7837 -6.76121,-4.26642 -6.7612,-7.44818 v -9.76217 c -1e-5,-3.22993 2.25373,-5.71265 6.7612,-7.44817 2.43451,-0.94004 5.06186,-1.41007 7.88206,-1.4101 2.65143,3e-5 5.1221,0.40981 7.41202,1.22931 v -4.84492 c -3e-5,-1.20518 -0.75931,-2.10908 -2.27785,-2.71172 -1.49447,-0.60257 -3.32638,-0.90387 -5.49574,-0.90391 h -8.78594 V 104.345 l 2.89249,-6.146551 h 5.89345 c 3.06121,4.1e-5 5.80908,0.470073 8.24362,1.410091 4.50744,1.73554 6.76118,4.21826 6.76121,7.44818 v 29.82886 m -22.05528,-7.5928 c -2e-5,1.20522 0.74722,2.10912 2.24168,2.71171 1.51855,0.60261 3.24199,0.90391 5.17034,0.90391 1.92831,0 3.6397,-0.3013 5.13417,-0.90391 1.51854,-0.60259 2.27782,-1.50649 2.27785,-2.71171 v -7.23124 c -3e-5,-1.20519 -0.75931,-2.10909 -2.27785,-2.71172 -1.49447,-0.60257 -3.20586,-0.90388 -5.13417,-0.9039 -1.92835,2e-5 -3.65179,0.30133 -5.17034,0.9039 -1.49446,0.60263 -2.2417,1.50653 -2.24168,2.71172 v 7.23124" />
    </g>
  </g>
  <g
     style="display:inline"
     transform="translate(-88.58268,-76.535401)"
     id="layer2">
    <path
       id="path3767"
       transform="translate(88.58268,76.535401)"
       d="m 45.572266,12.667969 c -4.69882,6.3e-5 -8.915524,0.721186 -12.652344,2.164062 -6.91871,2.663941 -10.378916,6.47587 -10.378906,11.433594 v 50.779297 h 0.554687 l 10.544922,-4.994141 v -43.84375 c -2e-5,-1.84987 1.147486,-3.237109 3.441406,-4.162109 2.33087,-0.924915 5.160355,-1.386667 8.490235,-1.386719 3.32982,5.2e-5 6.14357,0.461804 8.4375,1.386719 2.33087,0.925 3.496053,2.312239 3.496093,4.162109 v 48.837891 h 0.002 l 11.097657,-5.22461 V 26.265625 C 68.605456,21.307901 65.14526,17.495972 58.226609,14.832031 54.48973,13.389155 50.271083,12.668032 45.572313,12.667969 Z"
       style="font-style:normal;font-variant:normal;font-weight:normal;font-stretch:normal;font-size:115.73174286px;line-height:125%;font-family:'Nova Flat';-inkscape-font-specification:'Nova Flat';letter-spacing:0px;word-spacing:0px;opacity:1;fill:#ffffff;fill-opacity:1;stroke:none;stroke-width:0.98209053" />
  </g>
</svg>
